<svg xmlns="http://www.w3.org/2000/svg" width="64" height="64">
<path fill="#f77f00" d="m 29.596185,10.010781 c 22.93735,1.49069 29.47902,23.93064 26.16667,44.466668 -11.05449,7.2455 -30.01718,1.24198 -30.22399,-1.40767 -0.20718,-2.65003 2.45313,-43.163358 4.05732,-43.058998" />
<path fill="#003049" d="m 33.111905,24.584691 16.1885,39.415308 c 0,0 -18.83853,-1.98733 -19.66652,-2.02846 0.20719,-0.91102 3.18819,-36.683018 3.47802,-37.386848" />
<path fill="#002442" d="m 28.654275,1e-6 c -5.8725,2.9711 -16.79331,33.3619 -21.2234797,59.114578 1.11783,0.16568 25.4213297,0 25.9594897,0 C 33.224605,58.079399 28.654275,10e-7 28.654275,10e-7" />
</svg>
