<?xml version="1.0" encoding="UTF-8" standalone="no"?>
<svg xmlns="http://www.w3.org/2000/svg" width="16" height="16" viewBox="0 0 16 16" >
<path d="M 1.5913185,3.042758 1.2299582,5.4604946 c -1.2e-6,0 1.919261,-0.3799586 1.8748561,0.3648828 -0.042177,0.7074929 -1.9209485,-0.029835 -1.9209485,-0.029835 l -0.1838656,1.156325 c 0,0 2.0331285,0.7143357 2.9611219,-0.155037 A 4.2786883,4.2786883 0 0 0 3.522157,8.6785591 4.2786883,4.2786883 0 0 0 7.8008412,12.957242 4.2786883,4.2786883 0 0 0 12.079524,8.6785591 4.2786883,4.2786883 0 0 0 11.734756,6.9979585 C 12.355348,7.1826521 14.773764,7.7737041 14.987344,5.8379476 15.18229,4.0711139 13.06053,4.4488166 13.06053,4.4488166 V 4.146621 h 1.642387 V 3.042758 h -2.522828 l -0.361361,2.4177364 c 0,0 1.919428,-0.3799584 1.875024,0.3648829 -0.04218,0.7074928 -1.92095,-0.029835 -1.92095,-0.029835 l -0.153361,0.963575 A 4.2786883,4.2786883 0 0 0 7.8008412,4.3998757 4.2786883,4.2786883 0 0 0 4.3281814,6.1880791 C 4.360293,6.0815891 4.3843292,5.9655632 4.3984099,5.8379476 4.5933547,4.0711139 2.4715933,4.4488166 2.4715933,4.4488166 V 4.146621 H 4.1141471 V 3.042758 Z M 7.8008412,5.7724126 A 2.906279,2.906279 0 0 1 10.707155,8.6785591 2.906279,2.906279 0 0 1 7.8008412,11.584871 2.906279,2.906279 0 0 1 4.8945272,8.6785591 2.906279,2.906279 0 0 1 7.8008412,5.7724126 Z" />
</svg>
