<svg xmlns="http://www.w3.org/2000/svg" width="1134.723" height="188.479" viewBox="0 0 1134.723 188.479"><defs><style>.a,.b{fill:#2d2683;}.b{fill-rule:evenodd;}</style></defs><g transform="translate(-155 -71)"><g transform="translate(1227 74)"><path class="a" d="M928.293,309.305l-1.624.525-.7-3.308c-.147.131-.447.268-.487.458a12.669,12.669,0,0,0-.343,2.372,15.012,15.012,0,0,0,.227,2.629c.418,2.578.873,5.15,1.331,7.721.14.787.324,1.568.518,2.345.105.422.233.818-.354,1.066.43.269.961.323.968.923,0,.422.089.842.111,1.265.019.371-.183.495-.553.54-.4.05-.677.12-.526.785a21.731,21.731,0,0,1,.476,4.055c.073,2.1,0,4.207.023,6.311.021,2.341.145,4.684.09,7.023-.038,1.6-.3,3.187-.476,4.778-.152,1.352-.328,2.7-.495,4.052s-.336,2.693-.5,4.041c-.179,1.448-.363,2.9-.532,4.345q-.275,2.356-.527,4.715c-.13,1.213-.222,2.43-.374,3.639-.189,1.505-.424,3.005-.634,4.508-.236,1.684-.459,3.37-.705,5.053-.275,1.873-.584,3.742-.85,5.616-.191,1.346-.336,2.7-.5,4.047-.219,1.763-.445,3.525-.661,5.288-.162,1.329-.372,2.656-.458,3.99a29.634,29.634,0,0,1-1.2,5.919,23.055,23.055,0,0,0-.724,4.618c-.1,1.56-.252,3.117-.321,4.678a17.451,17.451,0,0,0,.115,2.282,1.048,1.048,0,0,1-.446.987c-.283.224-.528.5-.824.7a1.029,1.029,0,0,1-.606.166c-.6-.041-1.19-.135-1.785-.2a1.762,1.762,0,0,0-.372.058c.263,1.217.467,2.41.794,3.569a13.9,13.9,0,0,0,.816,1.521c.875,2.038,3.22,3.06,3.015,4.9s-2.138,2.345-3.835,2.463c-.673.047-1.336.274-2.008.3a12.065,12.065,0,0,1-1.906-.192c-.89-.114-1.782-.221-2.667-.372a3.443,3.443,0,0,1-2.118-2.78c-.1-1.116-.262-2.227-.341-3.344a9.554,9.554,0,0,1,.026-2.144c.35-2.207.772-4.4,1.16-6.6.019-.106.005-.3-.047-.324-.622-.246-.419-.734-.355-1.171.1-.691.194-1.386.341-2.068.109-.505.152-1.039.793-1.3.2-.082.289-.617.321-.955.168-1.8.286-3.6.452-5.4.218-2.369.467-4.734.7-7.1.224-2.313.456-4.626.654-6.942.106-1.24.135-2.487.223-3.729.144-2.039.311-4.076.46-6.113q.079-1.081.12-2.165c.047-1.207.081-2.415.119-3.623.112-3.625.191-7.252.347-10.876a22.3,22.3,0,0,0-.593-5.669c-.381-1.771-.8-3.533-1.215-5.3a1.264,1.264,0,0,0-1.373-.931,10.287,10.287,0,0,1-.317,3.557,10.629,10.629,0,0,0-.041,1.665,32.526,32.526,0,0,1-.868,6.4,3.178,3.178,0,0,0,.253,2.385,2.75,2.75,0,0,1,.171,1.347c-.043,1.12-.182,2.237-.21,3.357a8.116,8.116,0,0,1-.791,3.592c-.67,1.316-1.13,2.749-1.882,4.012a5.612,5.612,0,0,0-.612,2.957c-.027,1.189-.1,2.378-.1,3.567a26.151,26.151,0,0,0,.124,2.712,1.381,1.381,0,0,0,.454.8,4.494,4.494,0,0,1,1.313,2.567c.081.382.254.442.574.432.423-.014.847,0,1.315,0,.018.18.045.334.046.488.005.587-.037,1.176.01,1.759a20.1,20.1,0,0,1-.944,7.171,13.289,13.289,0,0,0-.186,5.428,14.466,14.466,0,0,1-.216,6.608c-.466,1.387-.806,2.817-1.2,4.228a.858.858,0,0,1-.7.706c-.968.227-1.906.58-2.871.82a1.616,1.616,0,0,1-1.006-.086c-.832-.4-1.633-.861-2.43-1.326a.893.893,0,0,1-.349-.46,15.162,15.162,0,0,1-.906-5.058c.01-.742-.063-1.484-.107-2.226a19.575,19.575,0,0,1,.706-4.8c.106-.567.3-1.122.355-1.692a1.619,1.619,0,0,0-.289-.814c-.556-1.023-1.088-2.063-1.715-3.041a3.138,3.138,0,0,1-.536-2.31c.212-1.362.314-2.741.463-4.113,0-.04-.012-.1.009-.118.624-.6.167-1.182,0-1.786a30.913,30.913,0,0,0-2.076-5.114c-.81-1.684-1.6-3.375-2.431-5.051a7.656,7.656,0,0,0-.908-1.482,2.957,2.957,0,0,1-.7-2.1c.017-.465.151-.707.6-.791.25-.046.493-.132.859-.233-.337-.583-.639-1.11-.946-1.635a1.344,1.344,0,0,0-.15-.189,2.608,2.608,0,0,1-.334-2.542,7.976,7.976,0,0,0,.2-1.661c.055-2.38.054-4.762.126-7.142a14.583,14.583,0,0,1,1.633-6.577,2.563,2.563,0,0,0-.1-1.716,10.1,10.1,0,0,1,.084-4.378c.014-.118.065-.233.069-.35.043-1.288.088-2.576.119-3.865.045-1.9.063-3.792.119-5.687a34.344,34.344,0,0,1,.834-6.108c.306-1.439.624-2.876.91-4.318a.561.561,0,0,0-.19-.488,1,1,0,0,1-.552-1.153c.032-.408.04-.817.061-1.28-.755-.256-.327-.962-.35-1.5-.04-.942,0-1.886,0-2.83,0-.2-.029-.4-.034-.6-.037-1.391-.062-2.782-.109-4.172-.065-1.891-.2-3.782-.2-5.674,0-1.951.146-3.9.2-5.854a18.611,18.611,0,0,0-.108-1.927,1.825,1.825,0,0,0-.194-.449c-.665,1.11-1.565,1.973-1.673,3.3a6.052,6.052,0,0,1-.589,1.567l-1.387-.426c-.08,1.363-.136,2.684-.242,4a40.594,40.594,0,0,1-.51,4.964,26.48,26.48,0,0,1-1.439,4.129,44.837,44.837,0,0,0-2.324,9.568c-.114.745-.367,1.475-.416,2.221a12.153,12.153,0,0,0,.129,2.337,11.5,11.5,0,0,0,.415,1.545,3.383,3.383,0,0,0,1.279,1.859,2.558,2.558,0,0,1,.844,1.955c.261,1.758-.212,3.471-.248,5.21-.02.968-.1,1.934-.162,2.949a3.912,3.912,0,0,0-.671-.157.688.688,0,0,1-.72-.715c-.086-.771-.257-1.535-.306-2.307-.054-.855-.012-1.715-.012-2.554-1.474.03-1.26,1.125-1.477,1.922-.047.172-.033.363-.091.53-.511,1.46.079,2.811.531,4.122.18.52.9.864,1.4,1.261.624.5.618,1.035-.056,1.383a.536.536,0,0,1-.426.027,16.215,16.215,0,0,1-4.733-3.041,6.243,6.243,0,0,1-1.3-2.666,8.711,8.711,0,0,1-.247-2.743c.082-1.821.293-3.637.433-5.455.093-1.2.146-2.408.234-3.61.136-1.881.291-3.761.427-5.642.086-1.18.137-2.363.233-3.542.134-1.654.3-3.306.441-4.96.059-.7.093-1.4.129-2.1.081-1.566.121-3.134.245-4.7q.2-2.573.539-5.136c.132-1,.391-1.983.6-3.017l-1.373-.207c.077-1.356-.226-2.761.239-4.136.378-1.117.8-2.22,1.146-3.345.194-.624.458-.99,1.258-.57.117-.649.175-1.215.324-1.755.387-1.4.752-2.818,1.237-4.188.993-2.808,2-5.616,3.123-8.373.565-1.384,1.472-2.625,2.1-3.988.523-1.135,1.636-1.267,2.542-1.74a31.842,31.842,0,0,1,5.456-1.738,23.457,23.457,0,0,0,6.92-3.422c.482-.352.985-.674,1.47-1l.805.574.628-1.441a3.534,3.534,0,0,1-2.474-1.785l-.813.206c-.16-.791-.315-1.555-.476-2.353l-.371.118c0-.746-.548-1.559.387-2.027-.2-.578-.573-1.133-.5-1.619s.605-.884.936-1.322l.14.073c-.066-.267-.11-.541-.2-.8a3.583,3.583,0,0,1,.114-2.4,1.729,1.729,0,0,0-.334-1.821.848.848,0,0,1,.073-1.244,4.247,4.247,0,0,1,.7.486.812.812,0,0,0,1.3.021,2.331,2.331,0,0,1,.406-.236c-.514-.628-.212-1.209.086-1.811.629-1.27,1.175-2.584,1.863-3.82a5.382,5.382,0,0,1,2.713-2.284c.886-.378,1.748-.814,2.623-1.219a.943.943,0,0,1,.4-.118,7.185,7.185,0,0,1,3.222.573c.9.467,1.888.75,2.83,1.133a.917.917,0,0,1,.454.353,35.368,35.368,0,0,0,2.663,3.817,7.816,7.816,0,0,0,.984,1.289,2.745,2.745,0,0,1,.718,2.09c.072,1.239.113,2.479.291,3.832l1.211-1.474.115.107-1.191,2.149c1.341.292,1.811-.6,2.427-1.357-.295,1.213-1.485,2.59-2.174,2.468a7.55,7.55,0,0,1-.409,4.152l1.014.576-2.584.624a1.16,1.16,0,0,0,1.191,1.4,12.4,12.4,0,0,1,1.619.1l-3.248,1.96.706.594A5.5,5.5,0,0,1,920.486,271a1.644,1.644,0,0,0-1.453,1.177,1.8,1.8,0,0,0,0,1.688l.563-.25c.382.477.785.947,1.152,1.444a10.526,10.526,0,0,0,2.863,2.341,56.83,56.83,0,0,0,6.6,3.6,18.383,18.383,0,0,1,2.533,1.707.88.88,0,0,1,.251.523c.5,2.646,1.026,5.288,1.458,7.946a31.042,31.042,0,0,1,.332,3.9,26.2,26.2,0,0,0,1.09,6.68,22.218,22.218,0,0,1,.733,4.979c.06.892.2,1.777.309,2.686l-1.4.418a11.411,11.411,0,0,0,1.048,3.814,13.17,13.17,0,0,1,.595,2.735c.3,2.137.543,4.28.783,6.424.057.508-.032,1.032.017,1.542.059.622.22,1.233.289,1.854.18,1.615.374,3.23.487,4.85.127,1.824.177,3.654.251,5.481a7.932,7.932,0,0,0,.882,3.444,3.672,3.672,0,0,1,.326,1.377c.11,1.3.166,2.6.247,3.9a31.41,31.41,0,0,1,.2,3.534,15.176,15.176,0,0,1-.6,3.6,5.412,5.412,0,0,1-1.28,1.642c-.785.906-1.542,1.845-2.4,2.673a15.264,15.264,0,0,1-2.017,1.439.314.314,0,0,1-.256.011,2.532,2.532,0,0,1-1.315-3.632c.441-.852.933-1.677,1.415-2.537-.965-.379-.653-1.256-.554-1.9a25.24,25.24,0,0,0,.384-5.217,1.422,1.422,0,0,1,.445-1.245,4.092,4.092,0,0,0,1.058-2.46c.4-1.589-.249-3-.624-4.438a115.583,115.583,0,0,0-4.19-12.61,44.6,44.6,0,0,1-2.152-7.793,18.077,18.077,0,0,1-.25-2.87C928.263,312.085,928.293,310.713,928.293,309.305Z" transform="translate(-877.933 -245.594)"/></g><path class="a" d="M1144.351,240.038l1.477,2.24-.549.12c.779,2.1.237,4.07-.485,6.074a7.636,7.636,0,0,0-.3,2.825,11.417,11.417,0,0,1-1.729,7.35c-.431.612-.832,1.249-1.2,1.9a1.784,1.784,0,0,0,.925,2.707,16.563,16.563,0,0,0,7.554,1.67c3.785-.049,9.544,3.486,10.392,7.765,1.2,6.073,2.766,12.076,3.9,18.16,1.051,5.626,1.933,11.3,2.543,16.988a94.633,94.633,0,0,1,.033,21.079,30.252,30.252,0,0,0,.05,4.81,8.964,8.964,0,0,1-2.1,6.881,26.574,26.574,0,0,0-2.658,3.471,3.092,3.092,0,0,0-.3,1.784c.267,3.862.557,7.724.907,11.579.235,2.589.723,5.161.832,7.752a26.722,26.722,0,0,1-.435,6c-.647,3.448-.506,6.916-.685,10.381-.312,6.038-.855,12.065-1.287,18.1-.211,2.948-.388,5.9-.583,8.849a2.636,2.636,0,0,1-.1.936c-.911,1.88.229,3.093,1.353,4.32.107.116.257.208.324.343,1.493,2.995,4.462,3.544,7.254,4.367,1.022.3,2.1.43,3.1.78a3.811,3.811,0,0,1,1.631,1.08c1.146,1.392.545,2.856-1.23,3.206a29.4,29.4,0,0,1-12.005-.4,12.6,12.6,0,0,1-3.248-1.661c-2.22-1.257-3.119-1.174-5.059.474a1.5,1.5,0,0,1-.945.364c-1.9-.1-3.791-.23-5.676-.448a1.341,1.341,0,0,1-.964-.812,15.663,15.663,0,0,1,.014-2.95c.074-1,.253-1.989.371-2.985.027-.228-.042-.468-.008-.694.33-2.2.289-4.556,1.127-6.542.714-1.693-.1-2.925-.126-4.364-.05-2.993.18-5.99.271-8.986.06-1.98.07-3.962.117-5.943.039-1.651.1-3.3.154-4.952.025-.706.135-1.414.105-2.116-.149-3.467.144-7.041-.617-10.372-1.073-4.692-.844-9.4-1.251-14.1a36.658,36.658,0,0,0-3.034-11.932,2.827,2.827,0,0,0-.728-1.14c0,.653.024,1.307,0,1.958-.181,4.181-.42,8.359-.543,12.542-.076,2.568.042,5.142.028,7.712a5.786,5.786,0,0,1-.279,2.441c-1.065,2.143-.041,4.163.145,6.226.217,2.4.592,4.789.741,7.192.067,1.075-.443,2.189-.356,3.258.241,2.941.609,5.875,1.024,8.8.368,2.579.888,5.136,1.3,7.71a19.211,19.211,0,0,1,.168,6.344c-.382,1.573,0,6.675,0,6.675s-.1,1.037-2.375,1.075c-.768.013-1.2.161-1.136,1.05a2.229,2.229,0,0,1-1.445,2.24c-2.94,1.434-6,1.263-9.032.486-1.669-.428-1.817-1.214-.731-2.573s2.259-2.691,3.35-4.066c.576-.727,1.062-1.525,1.787-2.58-1.472.239-2.04-1.43-2.04-1.43s-.922-7.481-1.05-11.269a17.009,17.009,0,0,0-2.054-7.078,14.948,14.948,0,0,1-1.264-7.848c.238-3.787.484-7.572.68-11.361a9.488,9.488,0,0,0-.277-1.867c-.337-2.179-.8-4.347-.977-6.539a54.2,54.2,0,0,0-1.892-9.1,106.143,106.143,0,0,1-1.654-10.621,3.413,3.413,0,0,0-.329-1.463,7.311,7.311,0,0,1-1.112-5.541,2.4,2.4,0,0,0-.215-1.3,6.816,6.816,0,0,1-.614-5.15,4.916,4.916,0,0,0-.559-4.055,14.334,14.334,0,0,1-1.7-7.025,2.392,2.392,0,0,0-.668-1.6,21.427,21.427,0,0,1-4.2-4.94,6.4,6.4,0,0,0-2.088-2.014,11.15,11.15,0,0,1-4.445-5.371,48.1,48.1,0,0,0-2.867-5.535c-2.388-3.714-1.051-7.117.542-10.585.887-1.931,1.628-3.928,2.458-5.885.507-1.194.988-2.408,1.606-3.545.9-1.663,1.989-3.228,2.87-4.9,1.187-2.254,3.468-3.152,5.35-4.547a34.779,34.779,0,0,1,9.119-4.728,4.115,4.115,0,0,0,2.891-4.137c.129-2.515-.117-5.075-1.634-6.962-1.905-2.37-1.2-4.979-1.562-7.494a7.159,7.159,0,0,1,.175-3.182,6.871,6.871,0,0,1,2.632-3.593c.5-.382,1.137-.584,1.66-.943,1.627-1.116,3.234-2.245,5.372-1.945a1.4,1.4,0,0,0,.706-.038c1.194-.507,2.265.173,3.383.342.2.03.33.4.529.57a1.241,1.241,0,0,0,.6.335c1.277.118,2.126,1,3.088,1.687Zm-29.924,57.782a9.269,9.269,0,0,1,1.295,1.55c1.108,1.975,2.1,4.014,3.182,6a13.333,13.333,0,0,0,1.112,1.518,1.2,1.2,0,0,0,.3-.819c-.136-2.32-.285-4.639-.423-6.959-.154-2.6-.319-5.192-.443-7.79-.059-1.232-1.027-1.388-1.873-1.632-.822-.236-1.287.284-1.68.963a5.382,5.382,0,0,1-1.275,1.671c-1.14.845-.826,1.9-.651,2.964C1114.086,296.023,1114.231,296.751,1114.427,297.82Zm43.571,31.5.42.112a29.313,29.313,0,0,0,.81-3.726c.132-1.432-.135-2.9.015-4.331.171-1.619.226-3.135-.872-4.476a.912.912,0,0,1-.135-.447c-.4-3.13-.844-6.255-1.17-9.392-.24-2.312-.323-4.64-.483-6.961a1.166,1.166,0,0,0-.138-.336,1.493,1.493,0,0,0-.279.927c.189,3.906.229,7.829.634,11.713.4,3.837,1.223,7.628,1.749,11.455a15.047,15.047,0,0,1-.15,3.4A20.116,20.116,0,0,1,1158,329.325Z" transform="translate(-531.495 -165.69)"/><path class="a" d="M365.405,368.048c-.533,2.711-1.033,5.178-1.494,7.653a8.153,8.153,0,0,0-.081,1.653c.053,2.491.141,4.982.188,7.473.037,1.967-.123,3.934.621,5.848a5.616,5.616,0,0,1,.125,2.232c-.225,4.42-.593,8.836-.687,13.258-.06,2.839.266,5.686.431,8.528a1.262,1.262,0,0,0,.189.669c2.067,2.675,1.456,6.057,2.351,9.046a6.963,6.963,0,0,1-.359,3.094c-.039.192-.573.371-.893.4-2.659.255-5.292.817-8,.216a10.6,10.6,0,0,0-5.351.586,30.513,30.513,0,0,1-10.755,1.281,3.006,3.006,0,0,1-.7-.119c-1.06-.331-2.287-.592-2.42-1.934-.13-1.312.936-1.872,1.939-2.392,1.318-.683,2.61-1.418,3.943-2.07,2.072-1.013,2.742-3.113,3.867-4.863.836-1.3,2.313-2.238,2.37-3.983a21.491,21.491,0,0,0-.1-2.943,57.947,57.947,0,0,1-.7-6.236c.01-2.107.543-4.207.74-6.32a4.4,4.4,0,0,0-.291-2.37c-2.014-3.717-2.272-7.619-1.826-11.741.356-3.291.3-6.629.375-9.947.042-1.818-.111-3.644-.011-5.457a20.3,20.3,0,0,0-.839-6.307,3.72,3.72,0,0,1-.182-.806,6.9,6.9,0,0,0-2.644-5.493,8.056,8.056,0,0,1-2.763-6.667c.087-1.616.357-3.225.384-4.84.027-1.559-.217-3.12-.228-4.682-.032-4.506.076-9.014-.029-13.517-.092-3.984,1.172-7.714,1.856-11.553.145-.816.334-1.626.451-2.446.128-.9.091-1.732-1-2.095a.83.83,0,0,1-.412-.678c.146-1.237.424-2.46.549-3.7.375-3.7.545-7.423,1.1-11.092.38-2.518.3-5.287,2.331-7.3,2.265-2.243,4.291-4.76,7.152-6.336a4.617,4.617,0,0,0,.82-.68c.788-.72.786-.723.16-1.634l3.515-1.6c-.7-1.993-.153-4.34-1.612-6.253-.3-.389-.152-1.086-.332-1.6-.422-1.2-.976-2.355-1.366-3.564a26.458,26.458,0,0,1-.989-3.835c-.239-1.459-.3-2.949-.4-4.429a4.154,4.154,0,0,1,.216-.883c.116-.668.2-1.342.314-2.011.068-.4.036-.918.273-1.173,1.6-1.721,3.34-3.215,5.889-3.284,1.73-.047,3.457-.269,5.185-.265a6.6,6.6,0,0,1,5.714,4.532c.534,1.689.13,3.482.725,5.05.67,1.765-.247,3.311-.193,4.964a2.163,2.163,0,0,1-.537,1.394c-1.6,1.724-1.183,3.809-1.281,5.948l3.35.289-.837,2.783c2.075,1.125,4.1,2.414,6.268,3.362,6.489,2.833,9.739,7.892,10.453,14.758.412,3.963.738,7.934,1.108,11.9.095,1.014.21,2.026.328,3.159l-1.7.4c0,2.444.189,4.946-.048,7.409a89.259,89.259,0,0,1-1.467,9.2,61.381,61.381,0,0,1-1.788,6.381c-.319,1-.928,1.91-1.292,2.9a4.9,4.9,0,0,0-.385,2.1c.241,2.239.815,4.456.889,6.694a54.419,54.419,0,0,1-.489,6.718,54.486,54.486,0,0,0-.215,11.34,45.867,45.867,0,0,1-.855,12.966,13.943,13.943,0,0,0,.11,5.842c1.227,4.514,1.117,9.111,1.183,13.67.1,7.111-.228,14.227-.267,21.342-.009,1.6.525,3.186.646,4.792.193,2.559.206,5.131.385,7.691a20.106,20.106,0,0,0,.6,2.514c.333,1.628,1.04,2.377-.6,3.436s-2.59,1.037-5.971.8c-1.12-.049-4.219-2.472-4.295-3.691a8.762,8.762,0,0,0-3.437-6.206,3.859,3.859,0,0,1-.947-1.455,29.913,29.913,0,0,1-1.767-4.767,12.061,12.061,0,0,1,.159-3.551c.359-4.054.7-8.111,1.125-12.158.259-2.464.338-4.979,1.55-7.251a1.421,1.421,0,0,0,.048-.915c-.846-3.533-1.363-7.125-2-10.693-.739-4.121-2.362-8.085-3.625-12.11C366.461,371.027,365.948,369.632,365.405,368.048Z" transform="translate(-33.557 -175.895)"/><path class="a" d="M85.953,321.665l-.663-.073.984-.941H84.86l1.506-1.841-.164-.169-.639.471-.162-.119c.388-.479.812-.934,1.155-1.443a4.032,4.032,0,0,0,.7-1.774l-1.232,1.549.692-4.608-.988.458-.218-.164,2.283-2.556-.189-.175-2.141,1.958,1.08-4.778-.153-.086-.848,1.27c.039-.726.069-1.277.1-1.933l-.732.627.888-2.991-.095-.045-.757,1.187c-.7-2.371,1.446-3.053,2.428-4.472L85.8,302l1.632-3.23-.365-.225-1.593,2.212-.368-.276,2.523-3.262-1.852.21-.131-.127L88.1,296.02l-1.132-.111L90.08,294.9l-.063-.306.7.587-.11-.306,4.092-1.686.167.336-2.289,1.193,4.964-1.034-.481.614c1.308.256,2.6.5,3.894.765a6.567,6.567,0,0,1,4.026,2.4,3.366,3.366,0,0,1,.5,2.419,4.09,4.09,0,0,0,1.16,3.6l-1-.531c0,.123-.043.259.006.32.755.924.849,2.114,1.277,3.167a2.843,2.843,0,0,0,2.131,1.967l-1.337.124,1.053,1.609-.788-.251.184,1.743-1.218-1.885v2.322l-.514-1.743c-.719,1.981.15,3.377.939,4.876l-.714-.617,2.447,7.388-1.587-1.512-.172.152,1.887,2.6-.134.2-2.293-1.826.509,1.518-1.641-1.192c.084.842.26,1.533,1.171,1.876,1.8.679,3.6,1.4,5.342,2.225a4.6,4.6,0,0,1,2.664,4.281c.278,5.766.457,11.54.924,17.291.258,3.165,1.085,6.28,1.522,9.436a26.784,26.784,0,0,1,.132,4.6c-.129,3.628-.621,7.267-.443,10.875.218,4.426,1.327,8.821,1.384,13.238.05,3.928,1.276,7.429,2.511,10.98a98.034,98.034,0,0,1,3.73,15.015c.619,3.458,1.3,6.912,2.165,10.315,1.546,6.106,2.894,12.288,5.623,18.022,1.25,2.628,2.161,5.39,3.481,8.008.941,1.866,2.479,2.893,3.766,4.246.621.653,1.85.751,2.822,1.042a25.28,25.28,0,0,1,2.629.689,4.524,4.524,0,0,1,1.858,1.331c1.013,1.381.447,2.584-1.235,2.605-3.792.048-7.584.029-11.175-1.528a10.039,10.039,0,0,0-6.383-.311,13.281,13.281,0,0,1-3.769.013c-.21-.015-.567-.666-.527-.98a1.136,1.136,0,0,0-1.139-1.448c-1.732-.039-2.334-1.432-3.129-2.5-1.4-1.875-1.44-4.22-1.9-6.415q-2.145-10.317-4.313-20.63c-1.974-2.977-2.026-6.525-2.75-9.836a45.218,45.218,0,0,0-5.147-12.74c-1.183-2.082-2.036-4.352-3.032-6.54-.948-2.082-1.8-4.215-2.872-6.229a8.04,8.04,0,0,0-2.094-2.161c-.721-.594-1.269-.309-1.369.615-.367,3.376-.846,6.747-1.032,10.134-.323,5.882-.541,11.773-.619,17.662a16.336,16.336,0,0,0,.957,4.957,46.708,46.708,0,0,1,2.366,10.216c.449,5.545,1.147,11.071,1.767,16.6.228,2.03.455,4.066.836,6.07a19.053,19.053,0,0,0,1.141,3.344c.362.919.324,1.621-.784,1.9.225.928.432,1.763.63,2.6.2.854.215,1.7-1.554,2.1s-2.859.266-5.523-.507a3.407,3.407,0,0,1-1.72-1.356,2.859,2.859,0,0,0-3.059-1.694c-.934.137-1.414-.273-1.778-1.249A59.458,59.458,0,0,1,84.933,444.9c-.447-3.408-.966-6.808-1.333-10.224-.286-2.659-.325-5.344-.586-8.006-.45-4.6-.988-9.192-1.488-13.787a2.252,2.252,0,0,1-.041-.472c.514-4.748-.668-9.359-1.119-14.03-.11-1.139-.053-2.3-.181-3.431a1.638,1.638,0,0,0-.661-1.063c-1.184-.749-2.451-1.365-3.645-2.1-1.735-1.066-1.986-2.8-1.909-4.623.15-3.55.409-7.1.479-10.647.035-1.77-.348-3.546-.368-5.321-.049-4.336-.034-8.673.023-13.009.085-6.445.159-12.891.376-19.332.1-2.915.5-5.822.825-8.726a3.954,3.954,0,0,1,2.058-3.124C80.274,325.275,83.122,323.435,85.953,321.665Z" transform="translate(81.042 -204.186)"/><path class="a" d="M563.7,451.926c-.795.341-1.6.667-2.384,1.026a19.38,19.38,0,0,1-12.753.871c-1.453-.335-2.859-.873-4.293-1.3-.8-.236-.538-1.382-.538-1.382s-.1.259.3-.766a1.948,1.948,0,0,1,2.016-1.5c3.692.1,6.156-2.177,8.541-4.5.592-.577.709-1.617,1.142-2.389.363-.647.553-1.579,1.136-1.971a4.16,4.16,0,0,0,.379-2.373,38.014,38.014,0,0,1-.379-5.681c-.228-4.581-.288-9.17-.455-13.754-.029-.782-.3-1.554-.36-2.338-.122-1.524-.159-3.055-.266-4.581a8.394,8.394,0,0,0-.287-2.025c-.737-2.242-1.265-4.513-1.964-7.188a4.349,4.349,0,0,0-.334-1.416s-.533-.775-.45.143a23.6,23.6,0,0,0,.45,2.471,22,22,0,0,1,.766,3.733c-.139,3.313-.414,6.62-.6,9.931q-.4,7.219-.742,14.442c-.121,2.606-.15,5.216-.271,7.822-.044.947-.327,1.887-.329,2.831a25.348,25.348,0,0,1-.418,3.562c-.12.317-.815.447-1.043.449-2.051.014-4.1.008-6.114.008-.089-.338-.18-1.279-.18-1.279s-.343-.4-1.884,0a48.17,48.17,0,0,1-5.358,1.378c-3.7.476-7.321-.339-10.92-1.1-.457-.1-.8-.243-.9-.583a6.8,6.8,0,0,1,.442-2.181,1.153,1.153,0,0,1,1.457-.887c3.085.74,5.444-.7,7.914-2.273,1.774-1.129,2.705-2.949,4.257-4.212.157-.128.161-.547.111-.807a8.812,8.812,0,0,1-.452-1.789c.19-6,1.167-11.97.62-17.99-.223-2.455-.557-4.894-.954-7.337-.935-5.761-3.354-11.093-4.314-16.811-.065-.388-.1-.78-.15-1.171-.545-4.5-1.1-8.991-1.621-13.49-.094-.82,0-1.659-.06-2.484-.356-4.826.642-9.477,1.481-14.2a92.11,92.11,0,0,0,1.9-17.175c-.049-4.42.385-8.844.5-13.269.065-2.438-.14-4.883-.11-7.323a6.755,6.755,0,0,1,2.174-5.209c1.381-1.224,2.833-2.368,4.219-3.585,1.667-1.463,3-3.1,2.583-5.643-1.591.036-1.935-1.136-2.348-2.335a29.468,29.468,0,0,1-1.349-11.092,11.856,11.856,0,0,0-.053-1.908c-.018-.158-.357-.278-.6-.45.345-.506-.3-1.444.687-1.85.1-.039.432-.73-.317-.641l.52-1.679-.285-.45c.1-.087.141-.157.194-.165.251-.036.583.039.742-.1a21.127,21.127,0,0,0,1.728-1.681c.1-.11.035-.38.058-.816l5.305-1.531-.24-.273c.054-.038.117-.118.161-.108q.505.114,1,.259c.873.253,1.589.821,2.707.353.6-.252,1.659.422,2.443.814a19.8,19.8,0,0,1,2.088,1.356,4.637,4.637,0,0,0,.511,1.043c.482.573,1.041,1.081,1.651,1.7l.579-.408c-.052.608-.086,1-.12,1.4-.267.56,1.191,1-.094,1.71l.454.783c.221.6.371.973.487,1.351.043.14.069.361-.008.45-1.112,1.289-.834,3.063-1.58,4.479a23.719,23.719,0,0,1-2.123,3.9c-.247.308-.55.922-1.145,1.177-.567.242-.532,2.455-.1,3.275.464.884,1.224.544,1.876.391a.914.914,0,0,1,1.267.653c.174.475.508.89.706,1.36a5.142,5.142,0,0,0,2.125,2.5,32.741,32.741,0,0,1,6.214,5.221c2.857,3,3.593,6.523,3.761,10.371.1,2.251.2,4.5.3,6.753a18.273,18.273,0,0,1-.518,4.221,73.944,73.944,0,0,0-.758,8.953,7.779,7.779,0,0,1-1.09,3.9,35.59,35.59,0,0,0-3.3,6.671c-.43,1.174-.045,2.638-.071,3.971-.018.952-.07,1.906-.171,2.852-.2,1.876-.488,3.743-.66,5.621-.142,1.549-.212,3.107-.237,4.663-.024,1.434.062,2.87.084,4.3.013.808-.055,1.62,0,2.425q.29,4.537.638,9.069c.239,3.149.359,6.317.809,9.436a65.717,65.717,0,0,0,1.657,6.4,17.678,17.678,0,0,1,.657,3.476c.2,4.734.493,9.476.393,14.207-.147,6.95-.6,13.893-.917,20.84-.021.467.067.938.063,1.407a1.219,1.219,0,0,1-.154.74c-.475-.033.091,2.743.091,2.743a10.416,10.416,0,0,1-.225,3.95,26.744,26.744,0,0,1-3.1.362c-.612-.048-1.593-.067-1.725-.1S563.7,451.926,563.7,451.926Z" transform="translate(195.077 -196.558)"/><path class="a" d="M764.077,462.333l-1.933.317L760.9,457.89l-.467.351c.876,1-.067,1.944-.061,2.9a41.592,41.592,0,0,0,.458,5.03,19.662,19.662,0,0,0,.6,2.357l-2.506.578c-.52-1.345-1-2.591-1.482-3.839-.727-1.9-2.28-2.384-3.6-.891a56.891,56.891,0,0,0-3.288,4.714,2.067,2.067,0,0,1-1.191.907c-3.551.261-7.034,0-10.234-1.791-.24-.135-.554-.239-.686-.45a4.714,4.714,0,0,1-1.033-2.075c0-.377,1.041-.918,1.693-1.106a10.174,10.174,0,0,0,5.453-3.479,2.1,2.1,0,0,1-1.729-2.538c.08-.831.43-1.336,1.336-1.308.316.01.632-.022.949-.026a2.07,2.07,0,0,0,2.36-1.785c.264-1.214,1-2.322,1.293-3.534a6.172,6.172,0,0,0,.02-2.761c-1.628-7-1.223-14.043-.637-21.1.08-.968-.3-1.992-.127-2.929.49-2.68-.773-4.852-1.754-7.138a5.775,5.775,0,0,1-.406-2.07c-.2-6.754-.253-13.513-.572-20.26-.154-3.256-.781-6.489-1.2-9.771l-2.992.142c-.332-2.817-.765-5.508-.941-8.216-.275-4.226.89-8.306,1.5-12.442.708-4.762,1.346-9.534,2.022-14.3a44.517,44.517,0,0,1,.935-5.961,24.618,24.618,0,0,1,2.2-4.562,5.512,5.512,0,0,0,.306-4.546q-.307,1.87-.613,3.741l-.146,0-.161-1.114-.251-.036-.791,3.51c-.152-1.8-.286-3.387-.432-5.108l-.712,1.489c-.8-2.808.594-5.379.293-8.332l-.848,2.262V321.86l-.215-.036c-.094.483-.214.963-.273,1.45a4.983,4.983,0,0,1-.331,1.637c.185-2.576.371-5.153.555-7.7l-.391.629c-.317-2.133.845-3.844,1.5-6.048a8.287,8.287,0,0,0-.63.683,1.186,1.186,0,0,1-.524.547,9.471,9.471,0,0,1,.67-2.014,20.9,20.9,0,0,1,3.623-4.185c1.254-1.207,2.807-1.272,4.15-1.978,1.66-.873,3.393.153,5.039.81a9.9,9.9,0,0,1,5.692,6.145c.66,1.752,1.372,3.484,1.88,5.331l-.832-1.142-.173.092c.584,1.049,1.121,2.128,1.764,3.14a5.415,5.415,0,0,1,1.105,3.441,9.35,9.35,0,0,0,.472,2.47l-.466-.284-.192.122,2.388,3.743-.175.121-1.289-1.527-.505.362,2.313,4.67-.553-.117,1.18,3.81L768,334.92l.675,1.645-.538-.026a15.946,15.946,0,0,1,.709,3.177,31.931,31.931,0,0,1-.288,6.245c-.529,2.954-.037,5.829.148,8.736.133,2.088.6,4.222.314,6.252a24.463,24.463,0,0,1-2.036,5.619,23.155,23.155,0,0,1-1.384,2.449c.56,1.873,1.3,3.958,1.788,6.1a45.651,45.651,0,0,1,.794,5.616,1.189,1.189,0,0,1-.717.905,1.219,1.219,0,0,0-1.12,1.256c-.237,3.082-1.8,5.582-3.582,7.974a12.307,12.307,0,0,0-2.543,6.508c-.218,2.789-.827,5.57-.792,8.349.028,2.19-.205,4.528.951,6.595,1.2,2.148,1.189,4.557,1.521,6.893.768,5.4,1.618,10.784,2.273,16.194.418,3.449.66,6.931.744,10.4a7.482,7.482,0,0,1-1.114,3.405c-.468.884-.645,1.583.11,2.29a1.637,1.637,0,0,1,.416,1.936c-.95,2.232-.383,4.524-.378,6.793C763.949,460.9,764.027,461.568,764.077,462.333Z" transform="translate(381.588 -212.505)"/><path class="b" d="M614.61,139.595a129.374,129.374,0,0,0,1.963-13.518,24.525,24.525,0,0,1-.134-2.5c.089-.491.8-.357.134-1.339a5.134,5.134,0,0,1-.892-2.052s-.089-14.633-2.454-18.738c-2.409-4.1-2.811-6.246-3.792-6.737-1.026-.446-2.454-.937-2.945-1.562-.535-.58-2.9-1.472-2.365-3.747.58-2.231-.714-1.874-1.427-3.167-.758-1.294-2.142-10.8-4.952-14.99-2.855-4.194-4.729-4.774-6.737-4.506a9.23,9.23,0,0,0-7.941,1.651c-3.435,2.989-3.078,6.737-4.149,6.915-1.07.223-.267,1.427-.491,2.186s-1.115,1.115-.178,3.123,2.543,6.157,1.517,8.253c-1.07,2.1-2.1,2.632-1.74,4.818s-.045,2.32-1.338,2.409c-1.339.134-1.472,0-1.829.714-.357.669.312.624-.58.981-.937.357-1.294.491-1.294,1.651a2.964,2.964,0,0,1-.624,1.829l-8.566-12s-6.112,2.989-9.056,6.068a4.1,4.1,0,0,0-4.417-2.989l-.267.625s7.539,12.09,8.253,19.719c0,0,4.149-.669,4.952-.268.758.4.134,2.142,1.339,2.543a16.242,16.242,0,0,0,2.766.58,58.968,58.968,0,0,0,3.212,7.049,8.393,8.393,0,0,0,2.1,2.543c.268.223,1.428,2.364,2.945,2.811s1.74.446,2.186.179c.357-.268.536-.357.536-.4h0l.223.089c-.713,2.677-1.606,6.023-2.454,8.209-1.7,4.194-1.918,4.684-1.918,6.647s-1.784,10.886-1.561,14.009.625,2.9.982,4.952c.4,2.008.669,1.249.669,3.48s-.357,2.052,0,4.06c.357,2.052.491,4.194.893,4.372.357.134-.179-2.409.089-3.614s.178-1.294.758-1.517a18.371,18.371,0,0,0,2.275-.892c.58-.357,2.186-1.115,2.186-1.115s-.357,10.886.937,16.73a39.391,39.391,0,0,1,.491,10.886c.178,2.32,1.16,16.061,1.16,16.864s.223,2.677-4.506,3.7c-3.7.759-4.818,1.071-5.532,1.74a1.065,1.065,0,0,0,.268,1.74,12.7,12.7,0,0,0,7,1.16,17.442,17.442,0,0,1,6.692-.714c2.454.045,4.506-1.249,3.346-2.989s-1.651-4.283-.089-10.529,1.74-8.967.758-13.072c-.178-2.945,1.115-11.689,1.249-13.652.179-3.257.937-3.435,1.383-3.034.8.758,1.427,5.487,1.561,6.469a22.588,22.588,0,0,1-.134,7.763,15.528,15.528,0,0,0,0,3.792s2.275,12.4,2.275,15.3c0,.714.089,2.5.045,3.078-.134,1.7-.58,2.364-1.651,4.952-1.472,3.48,4.238,5.844,7.852,3.837,3.614-2.052,0-5.577-.491-6.737s-.491-1.383.714-9.859c.758-5.22,1.561-14.633.714-18.648-.937-4.372.848-9.592.982-10.975.178-1.383.892-8.209,1.16-10.038,0,0,.8,1.873,1.561,3.836.8,1.963.4,3.837,1.606,5.889,1.249,2.008,1.472,3.123,1.918,3.033.4-.045,3.524-1.651,3.167-4.729a39.379,39.379,0,0,1-.446-6.067c.089-1.74.089-2.766.58-3.659.536-.848,1.606-1.16,1.561-2.811a131.54,131.54,0,0,0-1.829-13.295,18.415,18.415,0,0,1-.58-6.915Zm-42.739-29.222-.446.223a2.12,2.12,0,0,1-.134.669c-.089.357-.134.4-.045.491a.79.79,0,0,1,.58.669,6.84,6.84,0,0,1,.134.848.931.931,0,0,0,.267.491s-.223-2.186-.267-2.632-.089-.758-.089-.758Z" transform="translate(424.945 36.542)"/><path class="b" d="M804.022,542.362c.1-.571-.831-4.206-.571-8.567.26-4.414,3.064-10.073,8.515-10.073,5.4,0,10.073,1.662,11.371,6.127s.727,5.244.311,6.594c-.415,1.4,1.091,3.115,1.091,4.465,0,1.3-1.662,1.09-1.662,1.557s.415.571,0,1.091-1.662.623-1.506,1.142c.207.519.519.623.259.986a7.719,7.719,0,0,1-.571.52s1.194,1.661-1.09,2.6a10.288,10.288,0,0,0-3.063,1.506c-.364.311-1.143.883-1.194,1.142a140.381,140.381,0,0,1,5.66,12.877c.675,1.817,1.194,3.271,1.557,4.465,4.309-5.556,13.6-15.421,13.6-15.421,1.973.935,8.515,7.218,8.515,7.218a3.824,3.824,0,0,1,3.115-1.818c-2.077,1.091-.052,5.244-.052,5.244s-1.454,1.142-4.569,3.894c-2.025,1.817-5.763,5.763-8.048,8.255a3.983,3.983,0,0,1-.468,1.142c-.259.468.26.208.156,1.039-.156.883-1.869,1.246-2.077,1.869-.207.571-.986,1.194-1.4,2.025-.467.883-.207.727-.986,1.4a32.72,32.72,0,0,1-4.05,1.817c.415,6.334,1.246,15.836.727,21.911-.675,8.308-2.752,12.513-4.206,13.136S821,649.373,816.9,657.94c-4.1,8.619-7.061,9.294-6.23,11.786.831,2.441,2.077,2.8,2.181,4.362.052,1.557-.26,1.557-.156,2.181s4.05,2.544,5.244,3.634c1.142,1.09,1.661,1.4,2.285,1.506.623.156,3.063-.415,3.686.207.571.675,2.025,1.714.052,2.908a9.047,9.047,0,0,1-4.881,1.4c-1.765.156-4.517.156-4.725.156h-1.038a32.814,32.814,0,0,0,3.582,4.777c1.454,1.35,1.921,1.869,1.765,3.271s-1.35,2.908-5.14,2.441a19.023,19.023,0,0,1-7.581-2.337,36.734,36.734,0,0,0-3.79-2.025,7.313,7.313,0,0,1-2.8-1.973,9.711,9.711,0,0,0-.675-2.181c-.312-.312-.52-.779-.415-1.973.1-1.142.467-.1.052-2.492-.467-2.336-1.714-4.725-1.35-7.425.415-2.752-.831-12.825-.986-15.732-.156-2.856.363-27.623-.415-31.206-.831-3.582-1.765-6.282-1.973-7.269s-.259,0-.83-2.544-.572-4.154-.883-4.413c-.26-.26-.519-.052-.831.415s-.519,1.3-.935,2.077c-.467.779-.467,1.246-.727.571a8.017,8.017,0,0,1-.311-2.181c-.052-.207-.779-.26-.779-.883s1.557-10.955,1.246-15.213c-.312-4.309-.467-4.673,0-7.373a36.314,36.314,0,0,1,.83-3.686,9.1,9.1,0,0,0,.467-2.544c0-1.869-.208-4.465-.208-9.294s-.675-6.646-.779-9.762c-.1-3.063-.156-6.386,2.025-9.605,2.18-3.271,6.386-6.854,7.373-8.256a16.411,16.411,0,0,1,2.44-2.907,7.431,7.431,0,0,0,1.921-1.765,4.376,4.376,0,0,0,.415-2.233Zm20.353,32.659c.156,1.142.311,2.389.415,2.908a11.32,11.32,0,0,1,1.921-.779c-.727-.675-1.506-1.454-2.336-2.129Z" transform="translate(-353.29 -438.722)"/><path class="b" d="M810.5,53.533s3-1.171,7.259,1.171,3.84,5.9,3.84,5.9.375,3.325.422,4.871a36.312,36.312,0,0,0,.281,6.65c.562,3.419-.937,7.306-6.135,7.868,0,0-.141,1.686.468,2.014.562.328,4.683.984,5.948,2.248a7.266,7.266,0,0,1,1.686,3.138s6.838,1.264,11.24,1.639a48.609,48.609,0,0,0,6.931.187s-2.81,2.81-4.121,4.309c-1.358,1.5-2.014,2.389-2.014,2.389s1.78.655,1.826,1.358a1.683,1.683,0,0,1-.421,1.124s.8.843.375,1.592c-.468.749-.843.843-.843.843s.234.8-.375,1.124a5.3,5.3,0,0,1-.7.375,1.943,1.943,0,0,1-.8.937,3.158,3.158,0,0,1-1.311.047,4.989,4.989,0,0,0-.515,2.81A14.814,14.814,0,0,1,832.61,111c-.141.562-.89,1.171-1.92,2.061a29,29,0,0,1-2.81,1.826c-.468.375-1.92,1.218-1.92,1.218a31.494,31.494,0,0,1,1.124,4.356c.094,1.311.14.983.188,2.342,0,.328.047.655.047.937v.047h.047v.094h0v.047h0a3.962,3.962,0,0,0,.187.8H827.5a2.889,2.889,0,0,1,.047,1.031c0,.937.8,2.061.749,3.138s1.4,3.512,1.171,5.667c-.234,2.2.8,5.62.609,14.1-.234,8.477.141,16.392.094,18.968-.094,2.623.094,2.014-.375,3.887-.468,1.92.328.375-.562,2.435a16.5,16.5,0,0,0-1.171,3.7c-.469,1.733-3.7,16.2-3.138,18.406.609,2.2.937,3.56.281,4.449-.656.937-.8.515-.843,1.733a13.908,13.908,0,0,0,.187,2.857c.094,1.873.094,2.061.094,2.435a22.8,22.8,0,0,0,3.044,3.887c.562.468.562.8,1.311,1.171a14.131,14.131,0,0,0,1.967.8c1.03.468,1.733.843,1.967,1.311.281.468,1.124,3.044-3,3.513-4.168.468-5.62-.047-6.463-.749-.8-.749-1.4-2.623-2.669-3.606a5.969,5.969,0,0,0-2.2-1.358c-.234-.047-.515.983-.515,2.107s.188,1.592-.047,1.686a2.074,2.074,0,0,1-1.358-.14c-.562-.234-1.5-.515-1.639-.8-.094-.281-1.077-6.088-1.218-6.744-.094-.655.281-1.077.281-1.4a15.822,15.822,0,0,0-.094-2.061,6.529,6.529,0,0,1,.328-2.81,2.888,2.888,0,0,0,.843-1.686,10.934,10.934,0,0,1,0-5.714c.843-2.576,1.639-13.3,1.686-15.034a12.927,12.927,0,0,1,.8-4.028c.375-.983.562,0,.562-1.405.047-1.358.14-1.545.14-2.154a9.805,9.805,0,0,0,.047-1.124,9.57,9.57,0,0,0-.047-3.466,6.914,6.914,0,0,1-.515-2.061,6.75,6.75,0,0,0,0-1.686,20.029,20.029,0,0,0-.281-2.061c-.047-.515,0-.094-.328-1.031a4.444,4.444,0,0,1-.281-1.5A39.367,39.367,0,0,0,815,152.634a32.439,32.439,0,0,1-1.639-4.777s-1.78,7.821-3.419,10.912a14.259,14.259,0,0,0-1.92,5.761,3.505,3.505,0,0,1-.468,1.826c-.422.843-.141,1.031-.328,1.733a4.1,4.1,0,0,1-.562,1.4c-.188.421.187.421-.094,1.124s-4.309,11.9-4.59,17.141c-.281,5.292.609,5.995,0,7.306-.655,1.311-.8.843-.375,2.248.422,1.452.984,1.639.562,2.061s-.422.187-.562.843c-.14.7.468,1.639.234,2.295s-.468,1.592-.609,2.107c-.094.515-.047.422-.14,1.218-.094.749.14.937,0,2.014s-.187,1.5-.187,1.5,1.826,5.807,2.669,7.728c.8,1.874,4.121,4.684,4.4,6.416.281,1.686-4.918,3.934-8.477,1.826a8.248,8.248,0,0,1-4.262-5.526c-.234-.8-.468-2.951-.843-2.763-.328.187-1.124.843-1.873.422-.7-.422-.7-.281-.655-.843s.421-3.419.14-4.168a3.776,3.776,0,0,1-.094-2.155,5.018,5.018,0,0,0,.375-1.92,4.153,4.153,0,0,1-.421-2.061,36.485,36.485,0,0,0,.468-3.794c.094-1.592.14-3.278.094-3.653a95.528,95.528,0,0,1,.14-17.094c.984-7.259,1.265-9.32,1.5-10.35.188-1.031,0-1.592.468-2.061s.984-.749.8-1.264c-.187-.562-.422-.749-.187-.984.187-.187.7-.655.7-.8a121.293,121.293,0,0,0,1.077-14c-.094-7.213-1.124-11.9-.656-20.654.094-2.061,1.686-9.554,1.592-11.053-.094-.8-.187-1.124-.234-1.733-.047-.562-.141-.609-.281-2.389-.187-1.78-.187-3-.562-2.763a6.736,6.736,0,0,1-3.138,1.218c-1.4.141-2.576.609-3.185-.047-.562-.609-2.295-3.512-2.388-4.73a8.541,8.541,0,0,1,.234-2.435s.8-9.6.937-11.708c.094-2.107.469-4.028.562-5.386a15.052,15.052,0,0,1,.749-3.981,23.509,23.509,0,0,1,3.465-4.59c1.077-1.218,3.747-1.827,4.777-2.014.983-.141,1.4-.188,1.4-.188s1.826-2.482,1.733-3.372c-.094-.843-1.124-1.639-1.5-1.5-.375.094-.937.656-1.124,1.827a4.013,4.013,0,0,0,.234,2.014,4.293,4.293,0,0,1-1.264-4.4,56.484,56.484,0,0,0,2.857-10.912c.421-3.793,4.59-11.662,9.367-9.975Z" transform="translate(55.946 31.759)"/></g></svg>