<svg xmlns="http://www.w3.org/2000/svg" height="456" width="696">
<path fill="#fff" d="m 343.40666,79.720009 c 103.54666,0 193.29066,84.589331 187.99999,187.999991 -2.08933,40.776 -19.052,13.068 -19.43333,1.756 -3.24933,-97.56266 -97.156,-160.39599 -166.93733,-160.43732 -61.54133,-0.0373 -117.072,30.35333 -144.172,81.30133 -43.58266,81.93733 -39.69733,33.54666 -38.69199,25.80266 11.42666,-88.224 86.04133,-136.422661 181.23466,-136.422661" />
<path fill="#fff" d="M 20.535999,1.178678 171.01066,1.1840114 166.312,51.110677 65.234932,51.65201 62.953065,75.542676 c 11.093866,-3.129333 22.358933,-4.582666 33.557333,-4.561333 53.458932,0.104 83.770932,37.150667 83.494932,75.702667 -0.328,44.896 -31.088,82.79733 -98.526665,83.224 C 42.734932,230.15201 13.526533,214.37201 0,201.85067 l 4.6973999,-46.44266 c 17.3708661,12.12 51.3957991,22.63466 71.9427311,22.552 34.895869,-0.14134 51.979599,-10.83334 52.089069,-31.00534 0.10413,-19.80266 -24.61467,-29.34399 -52.483869,-29.26533 -23.625599,0.068 -44.433332,5.552 -69.1307445,15.036 z" />
<path fill="#fff" d="m 535.93199,1.178678 150.47466,0.00533 -4.69867,49.926666 -101.07199,0.541333 -2.28134,23.890666 c 11.09334,-3.129333 22.35867,-4.582666 33.55733,-4.561333 53.45734,0.104 83.77067,37.14534 83.48934,75.70267 -0.32267,44.89066 -31.08934,82.79733 -98.52667,83.224 -38.73866,0.244 -67.948,-15.536 -81.47333,-28.05734 l 4.69733,-46.44266 c 17.37067,12.12 51.39067,22.63466 71.94267,22.552 34.896,-0.14534 51.97466,-10.83334 52.084,-31.00534 0.10933,-19.80266 -24.61467,-29.34399 -52.48533,-29.26533 -23.624,0.068 -44.42667,5.552 -69.124,15.036 z" />
<path fill="#fff" d="m 167.94266,260.84534 c 68.76533,-33.12 205.516,-36.94267 341.86399,37.896 10.66267,5.85333 13.84934,24.52013 9.90134,34.34413 -28.364,70.5572 -94.86933,121.58276 -174.98933,121.58276 -99.71333,0 -181.71866,-78.31196 -187.66133,-176.57356 -0.172,-2.81733 -3.49467,-10.328 10.88533,-17.24933" />
</svg>
