<svg xmlns="http://www.w3.org/2000/svg" height="71" width="100" >
<path fill="#fff" d="m 4.2237045,0.09113 -2.581145,17.269546 c -8e-6,0 13.7090065,-2.71399 13.3918285,2.606306 C 14.733122,25.020502 1.3133285,19.753874 1.3133285,19.753874 L 2.5085949e-6,28.013338 c 0,0 14.5223454914051,5.102398 21.1508694914051,-1.107407 A 30.562058,30.562058 0 0 0 18.015407,40.346848 30.562058,30.562058 0 0 0 48.577436,70.90887 30.562058,30.562058 0 0 0 79.139459,40.346848 30.562058,30.562058 0 0 0 76.676828,28.342561 c 4.432806,1.319242 21.707203,5.54104 23.232773,-8.285792 C 101.30207,7.436529 86.146643,10.134405 86.146643,10.134405 V 7.975865 H 97.877981 V 0.09113 H 79.857782 l -2.581154,17.269545 c 0,0 13.710203,-2.713989 13.393033,2.606306 -0.30127,5.05352 -13.721073,-0.213108 -13.721073,-0.213108 l -1.095434,6.882679 A 30.562058,30.562058 0 0 0 48.577436,9.784827 30.562058,30.562058 0 0 0 23.772724,22.557708 C 24.002093,21.797065 24.17378,20.968309 24.274356,20.056769 25.666819,7.436529 10.511381,10.134405 10.511381,10.134405 V 7.975865 H 22.243908 V 0.09113 Z M 48.577436,19.588662 A 20.759135,20.759135 0 0 1 69.336823,40.346848 20.759135,20.759135 0 0 1 48.577436,61.106217 20.759135,20.759135 0 0 1 27.818051,40.346848 20.759135,20.759135 0 0 1 48.577436,19.588662 Z" />
</svg>
